<svg version="1.1" id="Layer_1" xmlns="http://www.w3.org/2000/svg" xmlns:xlink="http://www.w3.org/1999/xlink" x="0px"
    y="0px" width="100%" viewBox="0 0 1866 1881" enable-background="new 0 0 1866 1881" xml:space="preserve">
    <path fill="#16678B" opacity="1.000000" stroke="none" d="
M883.000000,1.000002 
	C918.687561,1.000000 954.375122,1.000000 990.481567,1.427621 
	C992.080383,2.235504 993.239929,2.857567 994.443237,2.958750 
	C1006.944885,4.010025 1019.489319,4.656769 1031.951904,6.043961 
	C1050.268799,8.082800 1068.606567,10.151799 1086.791870,13.095714 
	C1106.895630,16.350216 1126.970825,20.020634 1146.821045,24.550529 
	C1184.995239,33.261971 1222.761963,43.670723 1259.196289,58.107742 
	C1289.641968,70.171822 1319.895264,82.839432 1349.612549,96.583069 
	C1369.630005,105.840752 1389.049927,116.646729 1407.871338,128.173538 
	C1435.367065,145.012650 1462.623291,162.355591 1488.995850,180.886703 
	C1519.792114,202.526291 1548.545044,226.909897 1575.957275,252.706406 
	C1592.663452,268.427826 1608.557739,285.057892 1624.181030,301.870514 
	C1638.007690,316.749817 1651.450684,332.048340 1664.159912,347.886627 
	C1678.677856,365.978973 1692.765625,384.477997 1705.990234,403.529266 
	C1719.123657,422.449158 1731.559448,441.919678 1743.186279,461.800781 
	C1755.487671,482.835663 1767.287109,504.249573 1777.821655,526.209961 
	C1789.922363,551.435547 1800.840698,577.259521 1811.457764,603.157593 
	C1824.011963,633.780518 1833.856689,665.379028 1841.913330,697.463928 
	C1847.791626,720.874084 1853.041992,744.464600 1857.745483,768.138977 
	C1860.914429,784.089966 1862.616089,800.331177 1865.081909,816.426025 
	C1865.224976,817.360046 1866.338257,818.145447 1867.000000,819.000000 
	C1867.000000,897.354248 1867.000000,975.708496 1866.583374,1054.471069 
	C1865.807739,1055.391357 1865.208008,1055.867432 1865.125854,1056.420532 
	C1863.724487,1065.858887 1862.713135,1075.367310 1860.971680,1084.740723 
	C1856.591309,1108.319702 1852.450806,1131.965820 1847.179321,1155.351807 
	C1839.543213,1189.228027 1829.875000,1222.603882 1817.328735,1254.995605 
	C1806.512207,1282.921631 1794.884033,1310.554443 1782.828125,1337.970947 
	C1776.188843,1353.069824 1768.366699,1367.701294 1760.293945,1382.104126 
	C1748.861084,1402.501831 1737.277344,1422.858276 1724.729492,1442.577881 
	C1703.041016,1476.662354 1679.362549,1509.357544 1652.715332,1539.803345 
	C1640.081665,1554.237915 1628.011719,1569.259277 1614.428833,1582.748535 
	C1591.827759,1605.193726 1568.420166,1626.844238 1544.936890,1648.376221 
	C1533.764404,1658.620361 1522.097778,1668.458008 1509.840942,1677.359009 
	C1485.604126,1694.959961 1461.194824,1712.385376 1436.105835,1728.730957 
	C1416.670166,1741.393555 1396.397095,1752.872925 1375.932007,1763.823975 
	C1357.021362,1773.943115 1337.627075,1783.272339 1317.961060,1791.836182 
	C1294.888672,1801.883179 1271.552368,1811.453125 1247.867798,1819.938354 
	C1203.851562,1835.707642 1158.869751,1848.201050 1112.724243,1856.148560 
	C1092.801758,1859.579834 1072.884521,1863.132690 1052.858521,1865.843872 
	C1035.875366,1868.142822 1018.760132,1869.583618 1001.664307,1870.893555 
	C987.467346,1871.981201 973.217285,1872.761108 958.983826,1872.885986 
	C942.041260,1873.034668 925.086487,1872.490845 908.145935,1871.960571 
	C894.243652,1871.525635 880.349915,1870.751953 866.460938,1869.975220 
	C856.892151,1869.440063 847.291748,1869.025024 837.787354,1867.878052 
	C821.130127,1865.867798 804.450256,1863.821533 787.935669,1860.907104 
	C764.805298,1856.825073 741.707336,1852.425415 718.794617,1847.275391 
	C683.777039,1839.404785 649.366211,1829.198364 615.889160,1816.267578 
	C589.334412,1806.010498 563.076172,1794.917358 537.069336,1783.335327 
	C520.816956,1776.097412 505.042358,1767.683350 489.475220,1759.037354 
	C470.765228,1748.645752 452.199066,1737.928589 434.114044,1726.493042 
	C401.648590,1705.963989 370.348602,1683.750244 341.160980,1658.691406 
	C326.496429,1646.101562 311.311066,1634.041626 297.418427,1620.645630 
	C272.078827,1596.211914 246.975067,1571.485107 224.645645,1544.156006 
	C213.896942,1531.000366 202.579865,1518.267090 192.491241,1504.624512 
	C178.012817,1485.045410 163.524216,1465.368652 150.673553,1444.717041 
	C133.623367,1417.316650 117.146667,1389.455444 102.295715,1360.821289 
	C89.190186,1335.552612 78.192574,1309.146118 67.099091,1282.889282 
	C53.190781,1249.970215 42.272896,1215.949341 33.134506,1181.425659 
	C22.357941,1140.713013 13.390571,1099.588135 8.987408,1057.617798 
	C6.785179,1036.626587 5.009034,1015.590698 2.926563,994.586182 
	C2.802951,993.339417 1.665610,992.193054 0.999996,991.000000 
	C1.000000,955.312439 1.000000,919.624878 1.427877,883.518188 
	C2.234785,882.086304 2.866750,881.093811 2.950296,880.057190 
	C3.375297,874.783447 3.510142,869.484009 4.018555,864.219788 
	C5.603191,847.811890 6.909297,831.362732 9.073239,815.028931 
	C11.686183,795.305969 14.405111,775.554077 18.255358,756.047058 
	C25.802948,717.807617 35.284904,680.002808 48.003025,643.125061 
	C55.349220,621.823853 63.458607,600.773926 71.678528,579.788757 
	C84.268723,547.646362 99.425064,516.696045 116.168312,486.518585 
	C132.004135,457.976685 148.436295,429.767761 167.898544,403.528442 
	C186.926529,377.874573 206.082199,352.269012 226.316544,327.571838 
	C240.892197,309.781372 257.178040,293.372925 273.003357,276.633820 
	C280.412720,268.796631 288.430786,261.520477 296.362152,254.194778 
	C306.699738,244.646606 316.891205,234.895874 327.746918,225.963150 
	C344.662659,212.043945 361.960846,198.579300 379.317261,185.207962 
	C414.504822,158.099548 452.167358,134.759598 491.139832,113.599770 
	C510.703125,102.978027 530.709473,93.009842 551.134399,84.177261 
	C578.459778,72.360603 606.014954,60.848949 634.159363,51.216446 
	C661.799500,41.756569 690.180054,34.356716 718.454285,26.879532 
	C753.157898,17.702068 788.490662,11.609124 824.216675,7.999152 
	C842.598694,6.141716 861.020874,4.684631 879.413391,2.925484 
	C880.658936,2.806357 881.806763,1.665610 883.000000,1.000002 
M386.089508,1105.238525 
	C386.173889,1105.273438 386.258270,1105.308228 386.342651,1105.343140 
	C386.219330,1105.236328 386.096008,1105.129395 385.865906,1104.520020 
	C385.596771,1104.330078 385.327667,1104.140259 385.104431,1103.485107 
	C384.811249,1103.331909 384.518097,1103.178833 384.224915,1103.025635 
	C384.475677,1103.359863 384.726471,1103.694214 385.184967,1104.477295 
	C385.393555,1104.757324 385.670288,1104.924927 386.089508,1105.238525 
M324.090210,1051.270142 
	C324.183899,1051.301758 324.277557,1051.333496 324.371246,1051.365112 
	C324.249725,1051.241577 324.128204,1051.118042 323.935272,1050.492676 
	C323.723755,1050.233887 323.512238,1049.974976 323.195496,1049.019165 
	C311.735168,1030.081787 299.715790,1011.456665 288.926758,992.144287 
	C263.652771,946.903809 243.163223,899.647034 231.399689,848.942932 
	C224.696259,820.049194 221.955292,790.870972 224.771652,761.212524 
	C225.467651,753.882996 226.002289,746.081482 224.265274,739.078857 
	C221.252777,726.934082 208.313339,718.714600 196.109375,719.314087 
	C183.873230,719.915222 171.297501,728.590454 169.484543,740.858704 
	C168.395172,748.230469 166.484451,755.592957 163.987854,762.620300 
	C159.485443,775.293640 160.810455,787.712219 163.646866,800.403320 
	C172.539429,840.191833 189.355606,876.643066 210.066650,911.451172 
	C231.262772,947.074402 256.365845,979.835999 284.230988,1010.443481 
	C296.654785,1024.090088 309.996216,1036.901245 323.168640,1050.513184 
	C323.385956,1050.776245 323.662079,1050.940063 324.090210,1051.270142 
M408.898041,1108.505615 
	C408.705597,1108.235840 408.513153,1107.966187 408.210693,1106.980713 
	C407.744385,1105.913574 407.341248,1104.813354 406.802673,1103.784058 
	C383.778351,1059.777710 374.486176,1012.293274 372.149261,963.274170 
	C370.039734,919.025452 373.590118,875.086853 382.111481,831.576111 
	C384.178467,821.021912 379.200439,811.945862 369.894958,808.742249 
	C359.930084,805.311646 350.316711,809.417786 345.437805,819.439270 
	C340.334259,829.922180 335.404358,840.490479 330.495544,851.066467 
	C329.743713,852.686340 329.241211,854.524109 329.083069,856.301941 
	C326.647003,883.693909 328.626038,910.869202 333.561737,937.844482 
	C341.734406,982.511108 357.547119,1024.474609 379.756683,1063.950073 
	C388.305420,1079.144653 398.450409,1093.441284 408.127075,1108.573486 
	C408.338806,1108.869629 408.626678,1109.014282 408.945190,1109.414307 
	C409.116760,1109.609009 409.288300,1109.803589 409.459839,1109.998291 
	C409.517181,1109.877075 409.655579,1109.694702 409.618042,1109.644897 
	C409.440002,1109.408569 409.213989,1109.208252 408.898041,1108.505615 
M1453.329590,1025.739624 
	C1453.378418,1025.474243 1453.427246,1025.208984 1453.476074,1024.943604 
	C1453.357544,1024.985474 1453.148438,1025.009277 1453.135864,1025.072266 
	C1453.073975,1025.383301 1453.063843,1025.704712 1452.666626,1026.141235 
	C1452.600342,1026.374634 1452.534180,1026.608032 1452.468018,1026.841431 
	C1452.576904,1026.825562 1452.766968,1026.835327 1452.781372,1026.789551 
	C1452.866211,1026.521729 1452.909790,1026.241089 1453.329590,1025.739624 
M1475.617188,1017.179199 
	C1475.567505,1017.444702 1475.517822,1017.710205 1475.468140,1017.975708 
	C1475.658081,1017.661316 1475.848145,1017.346924 1476.515625,1016.905640 
	C1476.796265,1016.712585 1477.001343,1016.458435 1477.693481,1015.776428 
	C1478.516602,1014.732056 1479.389648,1013.722839 1480.155884,1012.638367 
	C1525.523926,948.429871 1556.740479,878.308899 1568.657104,800.181458 
	C1572.560303,774.590942 1573.295410,748.834045 1571.740479,723.008606 
	C1571.651978,721.538879 1571.377930,719.980774 1570.769165,718.657471 
	C1564.505493,705.041626 1558.507935,691.286377 1551.724976,677.931335 
	C1545.518555,665.711853 1530.265015,662.318237 1519.143066,670.202087 
	C1510.336670,676.444702 1508.370361,685.195740 1510.373169,695.389893 
	C1516.191162,725.003235 1519.662720,754.943359 1520.804077,785.060364 
	C1521.958008,815.508667 1521.775513,845.970215 1518.209351,876.349426 
	C1513.995239,912.246338 1506.508057,947.307678 1492.766479,980.818604 
	C1487.912842,992.654480 1482.071045,1004.085205 1476.334839,1016.058105 
	C1476.131104,1016.330872 1476.012695,1016.636719 1475.617188,1017.179199 
M1530.578491,953.149414 
	C1530.533813,953.426453 1530.489014,953.703491 1530.444336,953.980469 
	C1530.674561,953.694458 1530.904785,953.408447 1531.573853,952.933167 
	C1531.834229,952.734314 1532.036377,952.487793 1532.726685,951.802795 
	C1538.805908,943.663452 1545.046387,935.639099 1550.937988,927.366150 
	C1590.108276,872.364197 1622.816650,814.017334 1642.445435,749.001160 
	C1651.142212,720.194763 1657.023071,690.868103 1656.799683,660.609436 
	C1656.770874,656.704712 1656.060425,652.586365 1654.665283,648.950867 
	C1650.191406,637.292664 1645.313599,625.786804 1640.428955,614.291260 
	C1639.475830,612.048401 1638.088745,609.828979 1636.399658,608.085205 
	C1621.902710,593.118835 1596.582520,597.729553 1587.887939,616.729126 
	C1584.011719,625.199829 1585.260986,633.382324 1587.672607,642.004700 
	C1598.978760,682.429871 1597.815186,723.382568 1591.610596,764.367126 
	C1583.635498,817.046265 1567.497314,867.387390 1546.898804,916.378601 
	C1541.934937,928.184692 1536.694946,939.874634 1531.270752,952.000488 
	C1531.094238,952.284119 1530.980225,952.591003 1530.578491,953.149414 
M492.168304,1161.075684 
	C471.901855,1156.577637 452.617279,1149.275146 433.860809,1140.514282 
	C386.520569,1118.402344 345.522400,1087.277466 308.082489,1051.259644 
	C274.727051,1019.171326 245.130569,983.815247 218.572983,945.927795 
	C181.400528,892.897034 151.996506,835.602112 125.960732,776.479797 
	C120.187721,763.370361 114.872475,750.055664 108.923904,737.028381 
	C103.930717,726.093506 92.919403,721.204407 81.060806,723.955505 
	C69.377518,726.665894 61.892941,735.792175 62.068542,747.614807 
	C62.137428,752.252808 62.784710,756.905457 63.466316,761.507385 
	C69.660378,803.326782 82.600952,843.140625 99.423851,881.784058 
	C119.361168,927.581543 144.304871,970.658325 170.516266,1013.072693 
	C209.316849,1075.858521 252.383820,1135.457764 301.815247,1190.354126 
	C332.839569,1224.808228 365.145874,1258.062256 401.046173,1287.419189 
	C436.884247,1316.725342 473.486542,1345.135010 510.430420,1373.041870 
	C566.211792,1415.178589 620.085083,1459.377319 668.175293,1510.338379 
	C698.762573,1542.751709 727.396973,1576.700073 752.479187,1613.576782 
	C790.508057,1669.488281 819.323669,1729.503052 833.557861,1795.989380 
	C835.039795,1802.911011 836.303467,1809.879517 837.668396,1816.826416 
	C840.297729,1810.896484 842.003906,1804.921875 843.488098,1798.892578 
	C856.500793,1746.027832 870.734680,1693.423340 882.126587,1640.210815 
	C895.174316,1579.263428 900.276978,1517.434082 895.211365,1454.996704 
	C891.865295,1413.753906 884.287354,1373.473389 869.333435,1334.814697 
	C837.158630,1251.636597 780.669434,1191.437134 698.681030,1155.716064 
	C660.749512,1139.189941 623.509033,1121.440308 589.124695,1098.168579 
	C543.728882,1067.444336 506.956238,1028.902588 481.946350,979.806946 
	C474.921143,966.016235 469.032379,951.650940 462.361725,937.673584 
	C458.339905,929.246460 451.358124,925.860901 441.788818,926.985840 
	C433.995667,927.901978 427.545746,933.625244 426.036072,942.195129 
	C424.277771,952.176270 422.789856,962.261719 422.102234,972.364319 
	C419.912354,1004.537720 427.534882,1034.820801 440.575562,1063.994873 
	C454.617676,1095.409546 472.306580,1124.817505 489.896484,1154.288086 
	C491.151520,1156.390869 491.999908,1158.736328 493.006989,1160.994995 
	C493.006989,1160.994995 492.980743,1161.024414 492.168304,1161.075684 
M1050.987549,1629.507324 
	C1052.680054,1634.385986 1054.154907,1639.353027 1056.098633,1644.129395 
	C1074.493774,1689.330322 1092.950562,1734.506104 1111.436768,1779.669678 
	C1114.869263,1788.055542 1118.512695,1796.354980 1122.058716,1804.694336 
	C1123.125122,1800.034058 1123.591187,1795.604980 1123.712769,1791.166382 
	C1124.413086,1765.600708 1128.247437,1740.439575 1133.594727,1715.496094 
	C1146.891602,1653.471191 1171.563843,1595.931519 1203.203369,1541.259033 
	C1247.609375,1464.526489 1302.453735,1395.785522 1364.283569,1332.470947 
	C1395.944214,1300.050049 1427.881714,1267.897705 1459.349976,1235.291870 
	C1498.783203,1194.433350 1533.794800,1149.955688 1565.850586,1103.127197 
	C1608.330322,1041.071167 1644.067871,975.291870 1674.532715,906.581421 
	C1696.492065,857.053955 1717.114258,807.030396 1731.890869,754.800781 
	C1745.060669,708.251648 1753.149536,660.967957 1751.991455,612.387085 
	C1751.663330,598.621643 1743.009766,588.791626 1729.733154,587.138977 
	C1716.592285,585.503235 1705.487061,593.108215 1701.970947,606.196594 
	C1698.298584,619.866943 1694.787842,633.581970 1690.992310,647.217773 
	C1670.158325,722.062988 1644.232056,794.909790 1605.676514,862.731628 
	C1570.880615,923.939941 1529.846069,980.288391 1476.576782,1026.976685 
	C1447.695435,1052.290039 1416.103760,1073.425903 1380.569336,1088.358765 
	C1379.022705,1089.008667 1377.384766,1089.440430 1374.974609,1090.246338 
	C1375.824219,1087.935059 1376.250366,1086.688232 1376.737061,1085.465576 
	C1385.853027,1062.563232 1395.479980,1039.848999 1403.980591,1016.720581 
	C1416.860596,981.676697 1426.766479,945.977661 1423.014893,907.939941 
	C1421.320679,890.762146 1417.408691,874.105530 1411.432739,857.956787 
	C1408.476562,849.968933 1400.894775,845.075500 1392.845947,845.175415 
	C1384.470825,845.279480 1377.240356,850.504150 1374.272217,858.715942 
	C1373.367798,861.217896 1372.630493,863.788147 1371.952393,866.362915 
	C1365.794189,889.746277 1358.819580,912.838440 1348.517334,934.812134 
	C1329.127563,976.168396 1301.504395,1011.273926 1267.736572,1041.764893 
	C1237.554321,1069.018311 1204.125977,1091.788330 1169.470703,1112.835327 
	C1127.815674,1138.133423 1092.965088,1170.549316 1066.198486,1211.372559 
	C1030.820312,1265.329956 1014.305481,1325.262451 1011.211731,1389.165405 
	C1009.695618,1420.480957 1010.964355,1451.779297 1015.186340,1482.899170 
	C1021.950562,1532.756958 1034.304810,1581.254883 1050.987549,1629.507324 
M689.524048,361.999298 
	C682.409607,362.332581 675.298157,362.797852 668.179810,362.962921 
	C660.696045,363.136475 656.501221,365.792816 655.090149,373.196747 
	C653.987366,378.983612 654.253296,385.025208 653.820923,390.947083 
	C652.571594,408.059387 651.224182,425.164673 650.018738,442.279999 
	C649.251831,453.168091 648.764038,464.075958 647.982361,474.962860 
	C646.729797,492.408447 645.262878,509.838745 644.026367,527.285400 
	C642.943481,542.565430 642.175598,557.868286 641.036194,573.143677 
	C640.223755,584.034546 638.945801,594.889832 638.022400,605.773438 
	C637.085449,616.816650 636.537903,627.895752 635.451965,638.922852 
	C632.746826,666.391357 629.822571,693.838196 627.006348,721.295776 
	C625.533264,735.658508 624.364624,750.057922 622.596802,764.383789 
	C619.186523,792.020813 616.023926,819.708008 611.692932,847.206543 
	C606.860901,877.886414 600.975403,908.404236 595.280457,938.942566 
	C592.873718,951.848267 589.553833,964.584045 587.161499,977.492004 
	C586.555664,980.760803 587.915039,984.393799 588.371399,987.859497 
	C591.128296,985.680298 594.658752,984.014648 596.506287,981.231689 
	C603.951599,970.016602 611.420166,958.755432 617.906738,946.975342 
	C659.870300,870.766663 696.859497,792.066223 733.758545,713.350037 
	C783.421997,607.403870 832.389221,501.131409 881.662537,395.002350 
	C884.671326,388.521759 887.964294,382.163605 890.736694,375.584869 
	C894.956604,365.571411 889.221375,356.865936 878.578247,357.034363 
	C867.487976,357.209900 856.402832,357.692871 845.314148,357.991913 
	C831.867371,358.354553 818.416931,358.593231 804.972168,359.015778 
	C785.928955,359.614258 766.892944,360.462555 747.847473,360.961670 
	C728.741150,361.462402 709.627075,361.665558 689.524048,361.999298 
M1175.804199,841.716553 
	C1163.880493,792.102051 1151.531860,742.584167 1140.220825,692.830322 
	C1134.942017,669.610291 1131.257080,645.998230 1127.584473,622.449341 
	C1121.385742,582.702454 1115.691528,542.875916 1109.965088,503.057037 
	C1108.401855,492.187469 1107.717651,481.192352 1106.191040,470.316498 
	C1104.950439,461.478607 1100.514526,457.872772 1091.783569,458.030396 
	C1080.521118,458.233765 1069.262817,458.664673 1058.002808,458.997955 
	C1046.741211,459.331268 1035.479370,459.659363 1024.217896,460.000336 
	C1013.460388,460.326019 1002.703186,460.663544 991.945923,460.999268 
	C981.352478,461.329865 970.760132,461.702148 960.165466,461.988403 
	C946.405029,462.360229 932.643555,462.705994 918.880920,462.979614 
	C913.055298,463.095459 907.225159,462.953735 901.397827,463.009705 
	C891.905518,463.100891 889.264771,464.980865 885.683105,473.801331 
	C883.539001,479.081818 885.937744,483.648346 888.352356,487.836945 
	C904.882568,516.511475 920.819275,545.571533 938.449402,573.561157 
	C1008.036926,684.038147 1082.488892,791.236816 1158.768188,897.164490 
	C1181.533325,928.778015 1205.437378,959.571716 1228.845703,990.721436 
	C1230.370239,992.750122 1232.119873,994.609558 1233.764893,996.547668 
	C1234.202759,996.196716 1234.640625,995.845703 1235.078491,995.494690 
	C1234.093628,993.472351 1233.135742,991.436340 1232.119019,989.430115 
	C1228.361084,982.014832 1224.392944,974.699463 1220.845581,967.185181 
	C1201.906006,927.064941 1188.190186,885.054443 1175.804199,841.716553 
M921.986755,773.545837 
	C926.004883,754.203064 930.092224,734.874329 934.013611,715.511963 
	C936.155212,704.937439 938.372437,694.355835 939.862732,683.680664 
	C940.683472,677.800903 939.187317,676.709717 933.031067,676.872803 
	C924.576050,677.096741 916.131104,677.676270 907.677429,677.981384 
	C887.971741,678.692505 868.264709,679.368347 848.555908,679.984985 
	C835.635193,680.389343 822.709961,680.643494 809.788025,681.011658 
	C805.639160,681.129883 803.162476,684.357117 804.121155,688.365051 
	C804.503906,689.965210 805.269653,691.472473 805.670959,693.069763 
	C825.804016,773.202393 845.913330,853.340881 866.035217,933.476257 
	C868.302856,942.506958 870.426880,951.583496 873.091736,960.496948 
	C873.650635,962.366394 876.303223,964.811096 877.985291,964.806763 
	C879.678406,964.802368 881.478333,962.179138 882.996704,960.492065 
	C883.585083,959.838135 883.559998,958.610901 883.762390,957.634155 
	C891.537048,920.118774 899.297180,882.600342 907.077759,845.086182 
	C911.967468,821.510681 916.886658,797.941223 921.986755,773.545837 
M656.239075,281.118378 
	C661.068848,291.939026 668.113708,300.434509 680.309875,303.045654 
	C683.515869,303.732056 685.467896,305.037384 687.046204,307.979675 
	C699.207092,330.650299 729.707642,347.455566 758.066467,343.122742 
	C791.719849,337.981018 818.478516,311.078583 819.973389,274.891907 
	C821.626648,234.869904 790.182556,200.985580 748.461426,200.901474 
	C729.290955,200.862823 712.820801,207.906586 698.831665,220.986649 
	C697.620728,222.118896 695.452759,223.166061 693.957642,222.911560 
	C678.062988,220.205734 666.295471,225.620163 658.628845,239.836365 
	C651.588318,252.891602 651.133789,266.490784 656.239075,281.118378 
M1048.469727,312.981750 
	C1031.364380,302.084991 1012.555969,300.355194 993.443848,304.602173 
	C955.245667,313.090393 931.367676,355.345947 941.673523,391.786469 
	C951.287903,425.782104 984.868774,450.336548 1022.693970,444.041107 
	C1061.623169,437.561951 1089.854980,399.935516 1080.319092,357.424377 
	C1076.072266,338.492188 1065.285645,323.944733 1048.469727,312.981750 
M330.088837,991.373108 
	C311.537079,927.955933 304.849976,863.172852 307.745941,797.286682 
	C308.290771,784.891541 301.099182,775.082397 289.971008,773.051636 
	C278.152222,770.894958 268.147614,777.165588 264.371063,789.299194 
	C260.560516,801.541992 256.829071,813.811462 253.274323,826.130249 
	C252.461853,828.945862 252.007370,832.054321 252.251083,834.955566 
	C254.474930,861.426941 259.392853,887.406006 267.409943,912.743225 
	C289.683929,983.138000 328.093323,1043.901855 378.131775,1097.685913 
	C379.268494,1098.907837 380.617554,1099.932251 381.867584,1101.048706 
	C382.267761,1100.728027 382.667969,1100.407349 383.068176,1100.086670 
	C358.860474,1067.288696 342.215759,1030.855103 330.088837,991.373108 
M1501.777222,875.202393 
	C1505.873413,842.498535 1506.292358,809.805908 1500.895386,777.211243 
	C1499.518555,768.896362 1498.575317,760.012207 1494.857910,752.698547 
	C1489.237305,741.641174 1481.424561,731.686523 1474.408691,721.354736 
	C1471.049561,716.408203 1466.211670,713.634521 1460.234131,713.028809 
	C1444.199097,711.403870 1435.088135,727.226135 1439.678223,740.209900 
	C1458.092773,792.299011 1469.261108,845.913452 1471.029175,901.272888 
	C1472.167480,936.915344 1469.043823,972.116882 1458.889038,1006.476318 
	C1457.352783,1011.674438 1455.628174,1016.817017 1453.990723,1021.985352 
	C1454.417358,1022.177551 1454.843994,1022.369812 1455.270630,1022.562012 
	C1457.375000,1018.369568 1459.569702,1014.219666 1461.569824,1009.978088 
	C1481.664429,967.365234 1495.191528,922.782898 1501.777222,875.202393 
M851.986084,662.626038 
	C857.464478,664.417419 862.849243,667.345520 868.437317,667.806030 
	C894.419189,669.946960 915.251587,650.182495 915.169128,624.155151 
	C915.095337,600.877197 896.215759,582.066528 872.845886,581.999084 
	C848.102112,581.927734 829.887268,600.847412 829.297668,624.074768 
	C828.881714,640.458618 836.747681,653.698425 851.986084,662.626038 
z" />
    <path fill="#FFFFFF" opacity="0.000000" stroke="none" d="
M0.999996,991.468628 
	C1.665610,992.193054 2.802951,993.339417 2.926563,994.586182 
	C5.009034,1015.590698 6.785179,1036.626587 8.987408,1057.617798 
	C13.390571,1099.588135 22.357941,1140.713013 33.134506,1181.425659 
	C42.272896,1215.949341 53.190781,1249.970215 67.099091,1282.889282 
	C78.192574,1309.146118 89.190186,1335.552612 102.295715,1360.821289 
	C117.146667,1389.455444 133.623367,1417.316650 150.673553,1444.717041 
	C163.524216,1465.368652 178.012817,1485.045410 192.491241,1504.624512 
	C202.579865,1518.267090 213.896942,1531.000366 224.645645,1544.156006 
	C246.975067,1571.485107 272.078827,1596.211914 297.418427,1620.645630 
	C311.311066,1634.041626 326.496429,1646.101562 341.160980,1658.691406 
	C370.348602,1683.750244 401.648590,1705.963989 434.114044,1726.493042 
	C452.199066,1737.928589 470.765228,1748.645752 489.475220,1759.037354 
	C505.042358,1767.683350 520.816956,1776.097412 537.069336,1783.335327 
	C563.076172,1794.917358 589.334412,1806.010498 615.889160,1816.267578 
	C649.366211,1829.198364 683.777039,1839.404785 718.794617,1847.275391 
	C741.707336,1852.425415 764.805298,1856.825073 787.935669,1860.907104 
	C804.450256,1863.821533 821.130127,1865.867798 837.787354,1867.878052 
	C847.291748,1869.025024 856.892151,1869.440063 866.460938,1869.975220 
	C880.349915,1870.751953 894.243652,1871.525635 908.145935,1871.960571 
	C925.086487,1872.490845 942.041260,1873.034668 958.983826,1872.885986 
	C973.217285,1872.761108 987.467346,1871.981201 1001.664307,1870.893555 
	C1018.760132,1869.583618 1035.875366,1868.142822 1052.858521,1865.843872 
	C1072.884521,1863.132690 1092.801758,1859.579834 1112.724243,1856.148560 
	C1158.869751,1848.201050 1203.851562,1835.707642 1247.867798,1819.938354 
	C1271.552368,1811.453125 1294.888672,1801.883179 1317.961060,1791.836182 
	C1337.627075,1783.272339 1357.021362,1773.943115 1375.932007,1763.823975 
	C1396.397095,1752.872925 1416.670166,1741.393555 1436.105835,1728.730957 
	C1461.194824,1712.385376 1485.604126,1694.959961 1509.840942,1677.359009 
	C1522.097778,1668.458008 1533.764404,1658.620361 1544.936890,1648.376221 
	C1568.420166,1626.844238 1591.827759,1605.193726 1614.428833,1582.748535 
	C1628.011719,1569.259277 1640.081665,1554.237915 1652.715332,1539.803345 
	C1679.362549,1509.357544 1703.041016,1476.662354 1724.729492,1442.577881 
	C1737.277344,1422.858276 1748.861084,1402.501831 1760.293945,1382.104126 
	C1768.366699,1367.701294 1776.188843,1353.069824 1782.828125,1337.970947 
	C1794.884033,1310.554443 1806.512207,1282.921631 1817.328735,1254.995605 
	C1829.875000,1222.603882 1839.543213,1189.228027 1847.179321,1155.351807 
	C1852.450806,1131.965820 1856.591309,1108.319702 1860.971680,1084.740723 
	C1862.713135,1075.367310 1863.724487,1065.858887 1865.125854,1056.420532 
	C1865.208008,1055.867432 1865.807739,1055.391357 1866.583374,1054.939697 
	C1867.000000,1330.633057 1867.000000,1606.266235 1867.000000,1881.949707 
	C1245.109375,1881.949707 623.218750,1881.949707 1.000000,1881.949707 
	C1.000000,1585.312500 1.000000,1288.624878 0.999996,991.468628 
z" />
    <path fill="#FFFFFF" opacity="0.000000" stroke="none" d="
M882.531372,1.000002 
	C881.806763,1.665610 880.658936,2.806357 879.413391,2.925484 
	C861.020874,4.684631 842.598694,6.141716 824.216675,7.999152 
	C788.490662,11.609124 753.157898,17.702068 718.454285,26.879532 
	C690.180054,34.356716 661.799500,41.756569 634.159363,51.216446 
	C606.014954,60.848949 578.459778,72.360603 551.134399,84.177261 
	C530.709473,93.009842 510.703125,102.978027 491.139832,113.599770 
	C452.167358,134.759598 414.504822,158.099548 379.317261,185.207962 
	C361.960846,198.579300 344.662659,212.043945 327.746918,225.963150 
	C316.891205,234.895874 306.699738,244.646606 296.362152,254.194778 
	C288.430786,261.520477 280.412720,268.796631 273.003357,276.633820 
	C257.178040,293.372925 240.892197,309.781372 226.316544,327.571838 
	C206.082199,352.269012 186.926529,377.874573 167.898544,403.528442 
	C148.436295,429.767761 132.004135,457.976685 116.168312,486.518585 
	C99.425064,516.696045 84.268723,547.646362 71.678528,579.788757 
	C63.458607,600.773926 55.349220,621.823853 48.003025,643.125061 
	C35.284904,680.002808 25.802948,717.807617 18.255358,756.047058 
	C14.405111,775.554077 11.686183,795.305969 9.073239,815.028931 
	C6.909297,831.362732 5.603191,847.811890 4.018555,864.219788 
	C3.510142,869.484009 3.375297,874.783447 2.950296,880.057190 
	C2.866750,881.093811 2.234785,882.086304 1.427877,883.049561 
	C1.000000,589.072876 1.000000,295.145813 1.000000,1.000000 
	C294.687531,1.000000 588.375122,1.000000 882.531372,1.000002 
z" />
    <path fill="#FFFFFF" opacity="0.000000" stroke="none" d="
M1867.000000,818.531372 
	C1866.338257,818.145447 1865.224976,817.360046 1865.081909,816.426025 
	C1862.616089,800.331177 1860.914429,784.089966 1857.745483,768.138977 
	C1853.041992,744.464600 1847.791626,720.874084 1841.913330,697.463928 
	C1833.856689,665.379028 1824.011963,633.780518 1811.457764,603.157593 
	C1800.840698,577.259521 1789.922363,551.435547 1777.821655,526.209961 
	C1767.287109,504.249573 1755.487671,482.835663 1743.186279,461.800781 
	C1731.559448,441.919678 1719.123657,422.449158 1705.990234,403.529266 
	C1692.765625,384.477997 1678.677856,365.978973 1664.159912,347.886627 
	C1651.450684,332.048340 1638.007690,316.749817 1624.181030,301.870514 
	C1608.557739,285.057892 1592.663452,268.427826 1575.957275,252.706406 
	C1548.545044,226.909897 1519.792114,202.526291 1488.995850,180.886703 
	C1462.623291,162.355591 1435.367065,145.012650 1407.871338,128.173538 
	C1389.049927,116.646729 1369.630005,105.840752 1349.612549,96.583069 
	C1319.895264,82.839432 1289.641968,70.171822 1259.196289,58.107742 
	C1222.761963,43.670723 1184.995239,33.261971 1146.821045,24.550529 
	C1126.970825,20.020634 1106.895630,16.350216 1086.791870,13.095714 
	C1068.606567,10.151799 1050.268799,8.082800 1031.951904,6.043961 
	C1019.489319,4.656769 1006.944885,4.010025 994.443237,2.958750 
	C993.239929,2.857567 992.080383,2.235504 990.950256,1.427621 
	C1282.924561,1.000000 1574.849243,1.000000 1867.000000,1.000000 
	C1867.000000,273.354187 1867.000000,545.708435 1867.000000,818.531372 
z" />
    <path fill="#30ADE5" opacity="1.000000" stroke="none" d="
M1050.865967,1629.131348 
	C1034.304810,1581.254883 1021.950562,1532.756958 1015.186340,1482.899170 
	C1010.964355,1451.779297 1009.695618,1420.480957 1011.211731,1389.165405 
	C1014.305481,1325.262451 1030.820312,1265.329956 1066.198486,1211.372559 
	C1092.965088,1170.549316 1127.815674,1138.133423 1169.470703,1112.835327 
	C1204.125977,1091.788330 1237.554321,1069.018311 1267.736572,1041.764893 
	C1301.504395,1011.273926 1329.127563,976.168396 1348.517334,934.812134 
	C1358.819580,912.838440 1365.794189,889.746277 1371.952393,866.362915 
	C1372.630493,863.788147 1373.367798,861.217896 1374.272217,858.715942 
	C1377.240356,850.504150 1384.470825,845.279480 1392.845947,845.175415 
	C1400.894775,845.075500 1408.476562,849.968933 1411.432739,857.956787 
	C1417.408691,874.105530 1421.320679,890.762146 1423.014893,907.939941 
	C1426.766479,945.977661 1416.860596,981.676697 1403.980591,1016.720581 
	C1395.479980,1039.848999 1385.853027,1062.563232 1376.737061,1085.465576 
	C1376.250366,1086.688232 1375.824219,1087.935059 1374.974609,1090.246338 
	C1377.384766,1089.440430 1379.022705,1089.008667 1380.569336,1088.358765 
	C1416.103760,1073.425903 1447.695435,1052.290039 1476.576782,1026.976685 
	C1529.846069,980.288391 1570.880615,923.939941 1605.676514,862.731628 
	C1644.232056,794.909790 1670.158325,722.062988 1690.992310,647.217773 
	C1694.787842,633.581970 1698.298584,619.866943 1701.970947,606.196594 
	C1705.487061,593.108215 1716.592285,585.503235 1729.733154,587.138977 
	C1743.009766,588.791626 1751.663330,598.621643 1751.991455,612.387085 
	C1753.149536,660.967957 1745.060669,708.251648 1731.890869,754.800781 
	C1717.114258,807.030396 1696.492065,857.053955 1674.532715,906.581421 
	C1644.067871,975.291870 1608.330322,1041.071167 1565.850586,1103.127197 
	C1533.794800,1149.955688 1498.783203,1194.433350 1459.349976,1235.291870 
	C1427.881714,1267.897705 1395.944214,1300.050049 1364.283569,1332.470947 
	C1302.453735,1395.785522 1247.609375,1464.526489 1203.203369,1541.259033 
	C1171.563843,1595.931519 1146.891602,1653.471191 1133.594727,1715.496094 
	C1128.247437,1740.439575 1124.413086,1765.600708 1123.712769,1791.166382 
	C1123.591187,1795.604980 1123.125122,1800.034058 1122.058716,1804.694336 
	C1118.512695,1796.354980 1114.869263,1788.055542 1111.436768,1779.669678 
	C1092.950562,1734.506104 1074.493774,1689.330322 1056.098633,1644.129395 
	C1054.154907,1639.353027 1052.680054,1634.385986 1050.865967,1629.131348 
z" />
    <path fill="#30ADE5" opacity="1.000000" stroke="none" d="
M493.037354,1160.968994 
	C491.999908,1158.736328 491.151520,1156.390869 489.896484,1154.288086 
	C472.306580,1124.817505 454.617676,1095.409546 440.575562,1063.994873 
	C427.534882,1034.820801 419.912354,1004.537720 422.102234,972.364319 
	C422.789856,962.261719 424.277771,952.176270 426.036072,942.195129 
	C427.545746,933.625244 433.995667,927.901978 441.788818,926.985840 
	C451.358124,925.860901 458.339905,929.246460 462.361725,937.673584 
	C469.032379,951.650940 474.921143,966.016235 481.946350,979.806946 
	C506.956238,1028.902588 543.728882,1067.444336 589.124695,1098.168579 
	C623.509033,1121.440308 660.749512,1139.189941 698.681030,1155.716064 
	C780.669434,1191.437134 837.158630,1251.636597 869.333435,1334.814697 
	C884.287354,1373.473389 891.865295,1413.753906 895.211365,1454.996704 
	C900.276978,1517.434082 895.174316,1579.263428 882.126587,1640.210815 
	C870.734680,1693.423340 856.500793,1746.027832 843.488098,1798.892578 
	C842.003906,1804.921875 840.297729,1810.896484 837.668396,1816.826416 
	C836.303467,1809.879517 835.039795,1802.911011 833.557861,1795.989380 
	C819.323669,1729.503052 790.508057,1669.488281 752.479187,1613.576782 
	C727.396973,1576.700073 698.762573,1542.751709 668.175293,1510.338379 
	C620.085083,1459.377319 566.211792,1415.178589 510.430420,1373.041870 
	C473.486542,1345.135010 436.884247,1316.725342 401.046173,1287.419189 
	C365.145874,1258.062256 332.839569,1224.808228 301.815247,1190.354126 
	C252.383820,1135.457764 209.316849,1075.858521 170.516266,1013.072693 
	C144.304871,970.658325 119.361168,927.581543 99.423851,881.784058 
	C82.600952,843.140625 69.660378,803.326782 63.466316,761.507385 
	C62.784710,756.905457 62.137428,752.252808 62.068542,747.614807 
	C61.892941,735.792175 69.377518,726.665894 81.060806,723.955505 
	C92.919403,721.204407 103.930717,726.093506 108.923904,737.028381 
	C114.872475,750.055664 120.187721,763.370361 125.960732,776.479797 
	C151.996506,835.602112 181.400528,892.897034 218.572983,945.927795 
	C245.130569,983.815247 274.727051,1019.171326 308.082489,1051.259644 
	C345.522400,1087.277466 386.520569,1118.402344 433.860809,1140.514282 
	C452.617279,1149.275146 471.901855,1156.577637 492.612915,1161.140625 
	C493.057556,1161.205566 493.343475,1161.164185 493.343475,1161.164185 
	C493.343475,1161.164185 493.037384,1160.968994 493.037354,1160.968994 
z" />
    <path fill="#FEFFFF" opacity="1.000000" stroke="none" d="
M690.020203,361.999207 
	C709.627075,361.665558 728.741150,361.462402 747.847473,360.961670 
	C766.892944,360.462555 785.928955,359.614258 804.972168,359.015778 
	C818.416931,358.593231 831.867371,358.354553 845.314148,357.991913 
	C856.402832,357.692871 867.487976,357.209900 878.578247,357.034363 
	C889.221375,356.865936 894.956604,365.571411 890.736694,375.584869 
	C887.964294,382.163605 884.671326,388.521759 881.662537,395.002350 
	C832.389221,501.131409 783.421997,607.403870 733.758545,713.350037 
	C696.859497,792.066223 659.870300,870.766663 617.906738,946.975342 
	C611.420166,958.755432 603.951599,970.016602 596.506287,981.231689 
	C594.658752,984.014648 591.128296,985.680298 588.371399,987.859497 
	C587.915039,984.393799 586.555664,980.760803 587.161499,977.492004 
	C589.553833,964.584045 592.873718,951.848267 595.280457,938.942566 
	C600.975403,908.404236 606.860901,877.886414 611.692932,847.206543 
	C616.023926,819.708008 619.186523,792.020813 622.596802,764.383789 
	C624.364624,750.057922 625.533264,735.658508 627.006348,721.295776 
	C629.822571,693.838196 632.746826,666.391357 635.451965,638.922852 
	C636.537903,627.895752 637.085449,616.816650 638.022400,605.773438 
	C638.945801,594.889832 640.223755,584.034546 641.036194,573.143677 
	C642.175598,557.868286 642.943481,542.565430 644.026367,527.285400 
	C645.262878,509.838745 646.729797,492.408447 647.982361,474.962860 
	C648.764038,464.075958 649.251831,453.168091 650.018738,442.279999 
	C651.224182,425.164673 652.571594,408.059387 653.820923,390.947083 
	C654.253296,385.025208 653.987366,378.983612 655.090149,373.196747 
	C656.501221,365.792816 660.696045,363.136475 668.179810,362.962921 
	C675.298157,362.797852 682.409607,362.332581 690.020203,361.999207 
z" />
    <path fill="#FEFFFF" opacity="1.000000" stroke="none" d="
M1175.887939,842.113037 
	C1188.190186,885.054443 1201.906006,927.064941 1220.845581,967.185181 
	C1224.392944,974.699463 1228.361084,982.014832 1232.119019,989.430115 
	C1233.135742,991.436340 1234.093628,993.472351 1235.078491,995.494690 
	C1234.640625,995.845703 1234.202759,996.196716 1233.764893,996.547668 
	C1232.119873,994.609558 1230.370239,992.750122 1228.845703,990.721436 
	C1205.437378,959.571716 1181.533325,928.778015 1158.768188,897.164490 
	C1082.488892,791.236816 1008.036926,684.038147 938.449402,573.561157 
	C920.819275,545.571533 904.882568,516.511475 888.352356,487.836945 
	C885.937744,483.648346 883.539001,479.081818 885.683105,473.801331 
	C889.264771,464.980865 891.905518,463.100891 901.397827,463.009705 
	C907.225159,462.953735 913.055298,463.095459 918.880920,462.979614 
	C932.643555,462.705994 946.405029,462.360229 960.165466,461.988403 
	C970.760132,461.702148 981.352478,461.329865 991.945923,460.999268 
	C1002.703186,460.663544 1013.460388,460.326019 1024.217896,460.000336 
	C1035.479370,459.659363 1046.741211,459.331268 1058.002808,458.997955 
	C1069.262817,458.664673 1080.521118,458.233765 1091.783569,458.030396 
	C1100.514526,457.872772 1104.950439,461.478607 1106.191040,470.316498 
	C1107.717651,481.192352 1108.401855,492.187469 1109.965088,503.057037 
	C1115.691528,542.875916 1121.385742,582.702454 1127.584473,622.449341 
	C1131.257080,645.998230 1134.942017,669.610291 1140.220825,692.830322 
	C1151.531860,742.584167 1163.880493,792.102051 1175.887939,842.113037 
z" />
    <path fill="#FEFEFF" opacity="1.000000" stroke="none" d="
M921.889648,773.957458 
	C916.886658,797.941223 911.967468,821.510681 907.077759,845.086182 
	C899.297180,882.600342 891.537048,920.118774 883.762390,957.634155 
	C883.559998,958.610901 883.585083,959.838135 882.996704,960.492065 
	C881.478333,962.179138 879.678406,964.802368 877.985291,964.806763 
	C876.303223,964.811096 873.650635,962.366394 873.091736,960.496948 
	C870.426880,951.583496 868.302856,942.506958 866.035217,933.476257 
	C845.913330,853.340881 825.804016,773.202393 805.670959,693.069763 
	C805.269653,691.472473 804.503906,689.965210 804.121155,688.365051 
	C803.162476,684.357117 805.639160,681.129883 809.788025,681.011658 
	C822.709961,680.643494 835.635193,680.389343 848.555908,679.984985 
	C868.264709,679.368347 887.971741,678.692505 907.677429,677.981384 
	C916.131104,677.676270 924.576050,677.096741 933.031067,676.872803 
	C939.187317,676.709717 940.683472,677.800903 939.862732,683.680664 
	C938.372437,694.355835 936.155212,704.937439 934.013611,715.511963 
	C930.092224,734.874329 926.004883,754.203064 921.889648,773.957458 
z" />
    <path fill="#FEFFFF" opacity="1.000000" stroke="none" d="
M656.123779,280.747131 
	C651.133789,266.490784 651.588318,252.891602 658.628845,239.836365 
	C666.295471,225.620163 678.062988,220.205734 693.957642,222.911560 
	C695.452759,223.166061 697.620728,222.118896 698.831665,220.986649 
	C712.820801,207.906586 729.290955,200.862823 748.461426,200.901474 
	C790.182556,200.985580 821.626648,234.869904 819.973389,274.891907 
	C818.478516,311.078583 791.719849,337.981018 758.066467,343.122742 
	C729.707642,347.455566 699.207092,330.650299 687.046204,307.979675 
	C685.467896,305.037384 683.515869,303.732056 680.309875,303.045654 
	C668.113708,300.434509 661.068848,291.939026 656.123779,280.747131 
z" />
    <path fill="#FEFFFF" opacity="1.000000" stroke="none" d="
M1048.784668,313.162933 
	C1065.285645,323.944733 1076.072266,338.492188 1080.319092,357.424377 
	C1089.854980,399.935516 1061.623169,437.561951 1022.693970,444.041107 
	C984.868774,450.336548 951.287903,425.782104 941.673523,391.786469 
	C931.367676,355.345947 955.245667,313.090393 993.443848,304.602173 
	C1012.555969,300.355194 1031.364380,302.084991 1048.784668,313.162933 
z" />
    <path fill="#30ACE4" opacity="1.000000" stroke="none" d="
M1531.582031,951.618042 
	C1536.694946,939.874634 1541.934937,928.184692 1546.898804,916.378601 
	C1567.497314,867.387390 1583.635498,817.046265 1591.610596,764.367126 
	C1597.815186,723.382568 1598.978760,682.429871 1587.672607,642.004700 
	C1585.260986,633.382324 1584.011719,625.199829 1587.887939,616.729126 
	C1596.582520,597.729553 1621.902710,593.118835 1636.399658,608.085205 
	C1638.088745,609.828979 1639.475830,612.048401 1640.428955,614.291260 
	C1645.313599,625.786804 1650.191406,637.292664 1654.665283,648.950867 
	C1656.060425,652.586365 1656.770874,656.704712 1656.799683,660.609436 
	C1657.023071,690.868103 1651.142212,720.194763 1642.445435,749.001160 
	C1622.816650,814.017334 1590.108276,872.364197 1550.937988,927.366150 
	C1545.046387,935.639099 1538.805908,943.663452 1532.305420,951.851990 
	C1531.884155,951.901184 1531.582031,951.618042 1531.582031,951.618042 
z" />
    <path fill="#30ACE4" opacity="1.000000" stroke="none" d="
M322.921173,1050.091553 
	C309.996216,1036.901245 296.654785,1024.090088 284.230988,1010.443481 
	C256.365845,979.835999 231.262772,947.074402 210.066650,911.451172 
	C189.355606,876.643066 172.539429,840.191833 163.646866,800.403320 
	C160.810455,787.712219 159.485443,775.293640 163.987854,762.620300 
	C166.484451,755.592957 168.395172,748.230469 169.484543,740.858704 
	C171.297501,728.590454 183.873230,719.915222 196.109375,719.314087 
	C208.313339,718.714600 221.252777,726.934082 224.265274,739.078857 
	C226.002289,746.081482 225.467651,753.882996 224.771652,761.212524 
	C221.955292,790.870972 224.696259,820.049194 231.399689,848.942932 
	C243.163223,899.647034 263.652771,946.903809 288.926758,992.144287 
	C299.715790,1011.456665 311.735168,1030.081787 323.152771,1049.460938 
	C323.110016,1049.902832 322.921173,1050.091553 322.921173,1050.091553 
z" />
    <path fill="#30ACE4" opacity="1.000000" stroke="none" d="
M1476.680664,1015.700928 
	C1482.071045,1004.085205 1487.912842,992.654480 1492.766479,980.818604 
	C1506.508057,947.307678 1513.995239,912.246338 1518.209351,876.349426 
	C1521.775513,845.970215 1521.958008,815.508667 1520.804077,785.060364 
	C1519.662720,754.943359 1516.191162,725.003235 1510.373169,695.389893 
	C1508.370361,685.195740 1510.336670,676.444702 1519.143066,670.202087 
	C1530.265015,662.318237 1545.518555,665.711853 1551.724976,677.931335 
	C1558.507935,691.286377 1564.505493,705.041626 1570.769165,718.657471 
	C1571.377930,719.980774 1571.651978,721.538879 1571.740479,723.008606 
	C1573.295410,748.834045 1572.560303,774.590942 1568.657104,800.181458 
	C1556.740479,878.308899 1525.523926,948.429871 1480.155884,1012.638367 
	C1479.389648,1013.722839 1478.516602,1014.732056 1477.300049,1015.848755 
	C1476.906738,1015.921021 1476.680664,1015.700989 1476.680664,1015.700928 
z" />
    <path fill="#30ACE4" opacity="1.000000" stroke="none" d="
M330.195251,991.760254 
	C342.215759,1030.855103 358.860474,1067.288696 383.068176,1100.086670 
	C382.667969,1100.407349 382.267761,1100.728027 381.867584,1101.048706 
	C380.617554,1099.932251 379.268494,1098.907837 378.131775,1097.685913 
	C328.093323,1043.901855 289.683929,983.138000 267.409943,912.743225 
	C259.392853,887.406006 254.474930,861.426941 252.251083,834.955566 
	C252.007370,832.054321 252.461853,828.945862 253.274323,826.130249 
	C256.829071,813.811462 260.560516,801.541992 264.371063,789.299194 
	C268.147614,777.165588 278.152222,770.894958 289.971008,773.051636 
	C301.099182,775.082397 308.290771,784.891541 307.745941,797.286682 
	C304.849976,863.172852 311.537079,927.955933 330.195251,991.760254 
z" />
    <path fill="#30ACE4" opacity="1.000000" stroke="none" d="
M1501.702515,875.641968 
	C1495.191528,922.782898 1481.664429,967.365234 1461.569824,1009.978088 
	C1459.569702,1014.219666 1457.375000,1018.369568 1455.270630,1022.562012 
	C1454.843994,1022.369812 1454.417358,1022.177551 1453.990723,1021.985352 
	C1455.628174,1016.817017 1457.352783,1011.674438 1458.889038,1006.476318 
	C1469.043823,972.116882 1472.167480,936.915344 1471.029175,901.272888 
	C1469.261108,845.913452 1458.092773,792.299011 1439.678223,740.209900 
	C1435.088135,727.226135 1444.199097,711.403870 1460.234131,713.028809 
	C1466.211670,713.634521 1471.049561,716.408203 1474.408691,721.354736 
	C1481.424561,731.686523 1489.237305,741.641174 1494.857910,752.698547 
	C1498.575317,760.012207 1499.518555,768.896362 1500.895386,777.211243 
	C1506.292358,809.805908 1505.873413,842.498535 1501.702515,875.641968 
z" />
    <path fill="#30ACE4" opacity="1.000000" stroke="none" d="
M407.868103,1108.146973 
	C398.450409,1093.441284 388.305420,1079.144653 379.756683,1063.950073 
	C357.547119,1024.474609 341.734406,982.511108 333.561737,937.844482 
	C328.626038,910.869202 326.647003,883.693909 329.083069,856.301941 
	C329.241211,854.524109 329.743713,852.686340 330.495544,851.066467 
	C335.404358,840.490479 340.334259,829.922180 345.437805,819.439270 
	C350.316711,809.417786 359.930084,805.311646 369.894958,808.742249 
	C379.200439,811.945862 384.178467,821.021912 382.111481,831.576111 
	C373.590118,875.086853 370.039734,919.025452 372.149261,963.274170 
	C374.486176,1012.293274 383.778351,1059.777710 406.802673,1103.784058 
	C407.341248,1104.813354 407.744385,1105.913574 408.152008,1107.450684 
	C408.093323,1107.920532 407.868134,1108.146973 407.868103,1108.146973 
z" />
    <path fill="#FEFEFE" opacity="1.000000" stroke="none" d="
M851.679077,662.417236 
	C836.747681,653.698425 828.881714,640.458618 829.297668,624.074768 
	C829.887268,600.847412 848.102112,581.927734 872.845886,581.999084 
	C896.215759,582.066528 915.095337,600.877197 915.169128,624.155151 
	C915.251587,650.182495 894.419189,669.946960 868.437317,667.806030 
	C862.849243,667.345520 857.464478,664.417419 851.679077,662.417236 
z" />
    <path fill="#30ACE4" opacity="1.000000" stroke="none" d="
M1531.135132,953.122437 
	C1530.904785,953.408447 1530.674561,953.694458 1530.444336,953.980469 
	C1530.489014,953.703491 1530.533813,953.426453 1530.804688,953.086121 
	C1531.030762,953.022827 1531.135132,953.122498 1531.135132,953.122437 
z" />
    <path fill="#30ACE4" opacity="1.000000" stroke="none" d="
M1476.038208,1017.032593 
	C1475.848145,1017.346924 1475.658081,1017.661316 1475.468140,1017.975708 
	C1475.517822,1017.710205 1475.567505,1017.444702 1475.812500,1017.092407 
	C1476.007690,1017.005615 1476.038208,1017.032593 1476.038208,1017.032593 
z" />
    <path fill="#30ACE4" opacity="1.000000" stroke="none" d="
M1453.035522,1026.022461 
	C1453.063843,1025.704712 1453.073975,1025.383301 1453.135864,1025.072266 
	C1453.148438,1025.009277 1453.357544,1024.985474 1453.476074,1024.943604 
	C1453.427246,1025.208984 1453.378418,1025.474243 1453.164795,1025.867432 
	C1453.000122,1025.995361 1453.035522,1026.022461 1453.035522,1026.022461 
z" />
    <path fill="#30ACE4" opacity="1.000000" stroke="none" d="
M1452.983765,1025.979980 
	C1452.909790,1026.241089 1452.866211,1026.521729 1452.781372,1026.789551 
	C1452.766968,1026.835327 1452.576904,1026.825562 1452.468018,1026.841431 
	C1452.534180,1026.608032 1452.600342,1026.374634 1452.851074,1026.081787 
	C1453.035522,1026.022461 1453.000122,1025.995361 1452.983765,1025.979980 
z" />
    <path fill="#30ACE4" opacity="1.000000" stroke="none" d="
M384.977264,1104.028442 
	C384.726471,1103.694214 384.475677,1103.359863 384.224915,1103.025635 
	C384.518097,1103.178833 384.811249,1103.331909 385.059509,1103.737061 
	C385.014557,1103.988892 384.977264,1104.028442 384.977264,1104.028442 
z" />
    <path fill="#30ACE4" opacity="1.000000" stroke="none" d="
M409.005005,1108.995117 
	C409.213989,1109.208252 409.440002,1109.408569 409.618042,1109.644897 
	C409.655579,1109.694702 409.517181,1109.877075 409.459839,1109.998291 
	C409.288300,1109.803589 409.116760,1109.609009 408.972412,1109.207153 
	C408.999603,1109.000000 409.005005,1108.995117 409.005005,1108.995117 
z" />
    <path fill="#30ACE4" opacity="1.000000" stroke="none" d="
M1530.979736,952.971924 
	C1530.980225,952.591003 1531.094238,952.284119 1531.426392,951.809265 
	C1531.582031,951.618042 1531.884155,951.901184 1532.032227,952.047363 
	C1532.036377,952.487793 1531.834229,952.734314 1531.354492,953.027832 
	C1531.135132,953.122498 1531.030762,953.022827 1530.979736,952.971924 
z" />
    <path fill="#30ACE4" opacity="1.000000" stroke="none" d="
M1477.018677,1016.032104 
	C1477.001343,1016.458435 1476.796265,1016.712585 1476.276855,1016.969116 
	C1476.038208,1017.032593 1476.007690,1017.005615 1475.993774,1016.990601 
	C1476.012695,1016.636719 1476.131104,1016.330872 1476.507812,1015.879517 
	C1476.680664,1015.700989 1476.906738,1015.921021 1477.018677,1016.032104 
z" />
    <path fill="#30ACE4" opacity="1.000000" stroke="none" d="
M323.205383,1049.809570 
	C323.512238,1049.974976 323.723755,1050.233887 323.967682,1050.746338 
	C324.000092,1051.000000 323.997070,1051.004883 323.997070,1051.004883 
	C323.662079,1050.940063 323.385956,1050.776245 323.044922,1050.302368 
	C322.921173,1050.091553 323.110016,1049.902832 323.205383,1049.809570 
z" />
    <path fill="#30ACE4" opacity="1.000000" stroke="none" d="
M324.003387,1050.997314 
	C324.128204,1051.118042 324.249725,1051.241577 324.371246,1051.365112 
	C324.277557,1051.333496 324.183899,1051.301758 324.043640,1051.137451 
	C323.997070,1051.004883 324.000092,1051.000000 324.003387,1050.997314 
z" />
    <path fill="#30ACE4" opacity="1.000000" stroke="none" d="
M386.015137,1104.979858 
	C385.670288,1104.924927 385.393555,1104.757324 385.081116,1104.252930 
	C384.977264,1104.028442 385.014557,1103.988892 385.036560,1103.969604 
	C385.327667,1104.140259 385.596771,1104.330078 385.930969,1104.761475 
	C385.996002,1105.002930 386.015137,1104.979858 386.015137,1104.979858 
z" />
    <path fill="#30ACE4" opacity="1.000000" stroke="none" d="
M385.984344,1105.012695 
	C386.096008,1105.129395 386.219330,1105.236328 386.342651,1105.343140 
	C386.258270,1105.308228 386.173889,1105.273438 386.052307,1105.109131 
	C386.015137,1104.979858 385.996002,1105.002930 385.984344,1105.012695 
z" />
    <path fill="#30ACE4" opacity="1.000000" stroke="none" d="
M408.207001,1107.808472 
	C408.513153,1107.966187 408.705597,1108.235840 408.951538,1108.750366 
	C409.005005,1108.995117 408.999603,1109.000000 408.995117,1109.003662 
	C408.626678,1109.014282 408.338806,1108.869629 407.997620,1108.360229 
	C407.868134,1108.146973 408.093323,1107.920532 408.207001,1107.808472 
z" />
    <path fill="#16678B" opacity="1.000000" stroke="none" d="
M493.022186,1160.981934 
	C493.037384,1160.968994 493.343475,1161.164185 493.343475,1161.164185 
	C493.343475,1161.164185 493.057556,1161.205566 493.019165,1161.114990 
	C492.980743,1161.024414 493.006989,1160.994995 493.022186,1160.981934 
z" />
</svg>